HIERARCHY
ROOT Root
{
	OFFSET 0.00000 0.00000 0.00000
	CHANNELS 6 Xposition Yposition Zposition Zrotation Xrotation Yrotation
	JOINT Hips
	{
		OFFSET 0 0 0	
		CHANNELS 3 Zrotation Xrotation Yrotation
		JOINT Spine
		{
			OFFSET 0 4 0	
			CHANNELS 3 Zrotation Xrotation Yrotation
			JOINT Spine1
			{
				OFFSET 0 19.4 0	
				CHANNELS 3 Zrotation Xrotation Yrotation
				JOINT Spine2
				{
					OFFSET 0 16.6 0	
					CHANNELS 3 Zrotation Xrotation Yrotation
					JOINT LeftCollar
					{
						OFFSET 0 10 0	
						CHANNELS 3 Zrotation Xrotation Yrotation
						JOINT LeftArm
						{
							OFFSET 15.6 -2 3	
							CHANNELS 3 Zrotation Xrotation Yrotation
							JOINT LeftForeArm
							{
								OFFSET 3.5 -27 -1	
								CHANNELS 3 Zrotation Xrotation Yrotation
								JOINT LeftHand
								{
									OFFSET 1 -27 1	
									CHANNELS 3 Zrotation Xrotation Yrotation
									End Site
									{
										OFFSET 0 -15 0
									}
								}
							}
						}
					}
					JOINT RightCollar
					{
						OFFSET 0 10 0	
						CHANNELS 3 Zrotation Xrotation Yrotation
						JOINT RightArm
						{
							OFFSET -15.6 -2 3	
							CHANNELS 3 Zrotation Xrotation Yrotation
							JOINT RightForeArm
							{
								OFFSET -3.5 -27 -1	
								CHANNELS 3 Zrotation Xrotation Yrotation
								JOINT RightHand
								{
									OFFSET -1 -27 1	
									CHANNELS 3 Zrotation Xrotation Yrotation
									End Site
									{
										OFFSET 0 -15 0
									}
								}
							}
						}
					}
					JOINT Neck
					{
						OFFSET 0 10 0	
						CHANNELS 3 Zrotation Xrotation Yrotation
						JOINT Head
						{
							OFFSET 0 12.7 3	
							CHANNELS 3 Zrotation Xrotation Yrotation
							End Site
							{
								OFFSET 0 12.7 3
							}
						}
					}
				}
			}
		}
	}
	JOINT LeftHip
	{
		OFFSET 0 0 0	
		CHANNELS 3 Zrotation Xrotation Yrotation
		JOINT LeftUpLeg
		{
			OFFSET 8.8 -6 0	
			CHANNELS 3 Zrotation Xrotation Yrotation
			JOINT LeftLeg
			{
				OFFSET 0 -39 2	
				CHANNELS 3 Zrotation Xrotation Yrotation
				JOINT LeftFoot
				{
					OFFSET 0 -43 -2	
					CHANNELS 3 Zrotation Xrotation Yrotation
					JOINT LeftFootFront
					{
						OFFSET 0 -7 8.5	
						CHANNELS 3 Zrotation Xrotation Yrotation
						End Site
						{
							OFFSET 0 -0.5 9
						}
					}
				}
				JOINT LeftHeel
				{
					OFFSET 0 -43 -2	
					CHANNELS 3 Zrotation Xrotation Yrotation
					End Site
					{
						OFFSET 0 -7.5 -5
					}
				}
			}
		}
	}
	JOINT RightHip
	{
		OFFSET 0 0 0	
		CHANNELS 3 Zrotation Xrotation Yrotation
		JOINT RightUpLeg
		{
			OFFSET -8.8 -6 0	
			CHANNELS 3 Zrotation Xrotation Yrotation
			JOINT RightLeg
			{
				OFFSET 0 -39 2	
				CHANNELS 3 Zrotation Xrotation Yrotation
				JOINT RightFoot
				{
					OFFSET 0 -43 -2	
					CHANNELS 3 Zrotation Xrotation Yrotation
					JOINT RightFootFront
					{
						OFFSET 0 -7 8.5	
						CHANNELS 3 Zrotation Xrotation Yrotation
						End Site
						{
							OFFSET 0 -0.5 9
						}
					}
				}
				JOINT RightHeel
				{
					OFFSET 0 -43 -2	
					CHANNELS 3 Zrotation Xrotation Yrotation
					End Site
					{
						OFFSET 0 -7.5 -5
					}
				}
			}
		}
	}
}
MOTION
Frames: 30
Frame Time: 0.025
0 95.5 0 -0 0 -0 -0 0 -0 -0 0 -0 -8.6864 8.5004 25.079 -0 0 -0 -0 0 -0 53.468 -62.528 80.049 47.897 -35.341 39.964 -0 0 -0 -0 0 -0 4.0533 -11.368 -23.953 47.574 -5.0733 13.445 -0 0 -0 -0 0 -0 -0 0 -0 -0 0 -0 -0 0 -0 -0 0 -0 -0 0 -0 -0 0 -0 -0 0 -0 -0 0 -0 -0 0 -0 -0 0 -0 -0 0 -0 -0 0 -0 -0 0 -0 
0 95.5 0 -0 0 -0 -0 0 -0 -0 0 -0 -8.3976 8.3657 24.638 -0 0 -0 -0 0 -0 50.793 -64.296 77.126 50.425 -35.409 40.505 -0 0 -0 -0 0 -0 3.9218 -11.101 -23.565 48.678 -5.9197 11.918 -0 0 -0 -0 0 -0 -0 0 -0 -0 0 -0 -0 0 -0 -0 0 -0 -0 0 -0 -0 0 -0 -0 0 -0 -0 0 -0 -0 0 -0 -0 0 -0 -0 0 -0 -0 0 -0 -0 0 -0 
0 95.5 0 -0 0 -0 -0 0 -0 -0 0 -0 -8.1924 8.2779 24.005 -0 0 -0 -0 0 -0 47.097 -66.18 72.452 53.965 -35.055 41.253 -0 0 -0 -0 0 -0 3.8835 -10.897 -22.965 49.734 -7.0279 10.36 -0 0 -0 -0 0 -0 -0 0 -0 -0 0 -0 -0 0 -0 -0 0 -0 -0 0 -0 -0 0 -0 -0 0 -0 -0 0 -0 -0 0 -0 -0 0 -0 -0 0 -0 -0 0 -0 -0 0 -0 
0 95.5 0 -0 0 -0 -0 0 -0 -0 0 -0 -8.1027 8.3269 23.205 -0 0 -0 -0 0 -0 42.096 -68.233 66.043 58.331 -34.502 42.414 -0 0 -0 -0 0 -0 3.9329 -10.852 -22.165 50.704 -8.418 8.5823 -0 0 -0 -0 0 -0 -0 0 -0 -0 0 -0 -0 0 -0 -0 0 -0 -0 0 -0 -0 0 -0 -0 0 -0 -0 0 -0 -0 0 -0 -0 0 -0 -0 0 -0 -0 0 -0 -0 0 -0 
0 95.5 0 -0 0 -0 -0 0 -0 -0 0 -0 -8.0467 8.4846 22.294 -0 0 -0 -0 0 -0 34.887 -70.364 57.442 63.434 -34.063 44.07 -0 0 -0 -0 0 -0 3.9991 -10.913 -21.238 51.575 -10.049 6.3348 -0 0 -0 -0 0 -0 -0 0 -0 -0 0 -0 -0 0 -0 -0 0 -0 -0 0 -0 -0 0 -0 -0 0 -0 -0 0 -0 -0 0 -0 -0 0 -0 -0 0 -0 -0 0 -0 -0 0 -0 
0 95.5 0 -0 0 -0 -0 0 -0 -0 0 -0 -7.8278 8.6594 21.217 -0 0 -0 -0 0 -0 24.53 -72.038 46.212 69.276 -34.158 46.495 -0 0 -0 -0 0 -0 3.9407 -10.924 -20.17 52.381 -11.858 3.4897 -0 0 -0 -0 0 -0 -0 0 -0 -0 0 -0 -0 0 -0 -0 0 -0 -0 0 -0 -0 0 -0 -0 0 -0 -0 0 -0 -0 0 -0 -0 0 -0 -0 0 -0 -0 0 -0 -0 0 -0 
0 95.5 0 -0 0 -0 -0 0 -0 -0 0 -0 -7.3547 8.8942 19.828 -0 0 -0 -0 0 -0 11.65 -72.798 33.165 75.926 -34.751 49.976 -0 0 -0 -0 0 -0 3.6789 -10.894 -18.829 53.154 -13.823 0.11909 -0 0 -0 -0 0 -0 -0 0 -0 -0 0 -0 -0 0 -0 -0 0 -0 -0 0 -0 -0 0 -0 -0 0 -0 -0 0 -0 -0 0 -0 -0 0 -0 -0 0 -0 -0 0 -0 -0 0 -0 
0 95.5 0 -0 0 -0 -0 0 -0 -0 0 -0 -6.7456 9.1696 18.208 -0 0 -0 -0 0 -0 -2.334 -72.559 19.272 83.288 -35.231 54.324 -0 0 -0 -0 0 -0 3.3149 -10.868 -17.278 53.915 -15.946 -3.5861 -0 0 -0 -0 0 -0 -0 0 -0 -0 0 -0 -0 0 -0 -0 0 -0 -0 0 -0 -0 0 -0 -0 0 -0 -0 0 -0 -0 0 -0 -0 0 -0 -0 0 -0 -0 0 -0 -0 0 -0 
0 95.5 0 -0 0 -0 -0 0 -0 -0 0 -0 -6.1132 9.4119 16.533 -0 0 -0 -0 0 -0 -15.891 -71.281 5.6426 90.818 -35.161 58.793 -0 0 -0 -0 0 -0 2.9458 -10.83 -15.68 54.675 -18.218 -7.4347 -0 0 -0 -0 0 -0 -0 0 -0 -0 0 -0 -0 0 -0 -0 0 -0 -0 0 -0 -0 0 -0 -0 0 -0 -0 0 -0 -0 0 -0 -0 0 -0 -0 0 -0 -0 0 -0 -0 0 -0 
0 95.5 0 -0 0 -0 -0 0 -0 -0 0 -0 -5.4515 9.6398 14.784 -0 0 -0 -0 0 -0 -27.356 -69.077 -6.1086 97.839 -34.541 62.649 -0 0 -0 -0 0 -0 2.5653 -10.797 -14.013 55.437 -20.641 -11.365 -0 0 -0 -0 0 -0 -0 0 -0 -0 0 -0 -0 0 -0 -0 0 -0 -0 0 -0 -0 0 -0 -0 0 -0 -0 0 -0 -0 0 -0 -0 0 -0 -0 0 -0 -0 0 -0 -0 0 -0 
0 95.5 0 -0 0 -0 -0 0 -0 -0 0 -0 -4.862 9.8626 12.828 -0 0 -0 -0 0 -0 -35.891 -66.335 -15.253 103.92 -33.569 65.622 -0 0 -0 -0 0 -0 2.2995 -10.795 -12.125 56.161 -23.214 -15.534 -0 0 -0 -0 0 -0 -0 0 -0 -0 0 -0 -0 0 -0 -0 0 -0 -0 0 -0 -0 0 -0 -0 0 -0 -0 0 -0 -0 0 -0 -0 0 -0 -0 0 -0 -0 0 -0 -0 0 -0 
0 95.5 0 -0 0 -0 -0 0 -0 -0 0 -0 -4.4648 10.073 10.691 -0 0 -0 -0 0 -0 -41.992 -63.308 -22.442 109.02 -32.559 67.983 -0 0 -0 -0 0 -0 2.2707 -10.835 -10.017 56.739 -25.883 -20.172 -0 0 -0 -0 0 -0 -0 0 -0 -0 0 -0 -0 0 -0 -0 0 -0 -0 0 -0 -0 0 -0 -0 0 -0 -0 0 -0 -0 0 -0 -0 0 -0 -0 0 -0 -0 0 -0 -0 0 -0 
0 95.5 0 -0 0 -0 -0 0 -0 -0 0 -0 -4.0359 10.351 8.6298 -0 0 -0 -0 0 -0 -46.94 -59.851 -28.808 113.44 -31.865 70.254 -0 0 -0 -0 0 -0 2.1955 -10.958 -7.9905 57.037 -28.52 -25.334 -0 0 -0 -0 0 -0 -0 0 -0 -0 0 -0 -0 0 -0 -0 0 -0 -0 0 -0 -0 0 -0 -0 0 -0 -0 0 -0 -0 0 -0 -0 0 -0 -0 0 -0 -0 0 -0 -0 0 -0 
0 95.5 0 -0 0 -0 -0 0 -0 -0 0 -0 -3.6321 10.691 6.6358 -0 0 -0 -0 0 -0 -50.747 -56.053 -34.535 117.33 -31.716 72.596 -0 0 -0 -0 0 -0 2.1379 -11.169 -6.0248 56.932 -30.996 -30.847 -0 0 -0 -0 0 -0 -0 0 -0 -0 0 -0 -0 0 -0 -0 0 -0 -0 0 -0 -0 0 -0 -0 0 -0 -0 0 -0 -0 0 -0 -0 0 -0 -0 0 -0 -0 0 -0 -0 0 -0 
0 95.5 0 -0 0 -0 -0 0 -0 -0 0 -0 -3.3487 11.029 4.6454 -0 0 -0 -0 0 -0 -53.207 -52.292 -39.788 120.38 -32.078 74.475 -0 0 -0 -0 0 -0 2.216 -11.406 -4.0398 56.33 -33.242 -36.406 -0 0 -0 -0 0 -0 -0 0 -0 -0 0 -0 -0 0 -0 -0 0 -0 -0 0 -0 -0 0 -0 -0 0 -0 -0 0 -0 -0 0 -0 -0 0 -0 -0 0 -0 -0 0 -0 -0 0 -0 
0 95.5 0 -0 0 -0 -0 0 -0 -0 0 -0 -3.0801 11.308 2.6029 -0 0 -0 -0 0 -0 -54.609 -48.919 -44.995 122.37 -32.73 75.381 -0 0 -0 -0 0 -0 2.3379 -11.594 -2.0009 55.24 -35.251 -41.739 -0 0 -0 -0 0 -0 -0 0 -0 -0 0 -0 -0 0 -0 -0 0 -0 -0 0 -0 -0 0 -0 -0 0 -0 -0 0 -0 -0 0 -0 -0 0 -0 -0 0 -0 -0 0 -0 -0 0 -0 
0 95.5 0 -0 0 -0 -0 0 -0 -0 0 -0 -2.6618 11.509 0.40365 -0 0 -0 -0 0 -0 -55.441 -46.021 -50.424 123.6 -33.419 75.605 -0 0 -0 -0 0 -0 2.3547 -11.703 0.16465 53.797 -37.039 -46.778 -0 0 -0 -0 0 -0 -0 0 -0 -0 0 -0 -0 0 -0 -0 0 -0 -0 0 -0 -0 0 -0 -0 0 -0 -0 0 -0 -0 0 -0 -0 0 -0 -0 0 -0 -0 0 -0 -0 0 -0 
0 95.5 0 -0 0 -0 -0 0 -0 -0 0 -0 -2.0353 11.612 -1.9605 -0 0 -0 -0 0 -0 -56.089 -43.429 -56.04 124.55 -34.138 75.738 -0 0 -0 -0 0 -0 2.2023 -11.728 2.4515 52.18 -38.603 -51.67 -0 0 -0 -0 0 -0 -0 0 -0 -0 0 -0 -0 0 -0 -0 0 -0 -0 0 -0 -0 0 -0 -0 0 -0 -0 0 -0 -0 0 -0 -0 0 -0 -0 0 -0 -0 0 -0 -0 0 -0 
0 95.5 0 -0 0 -0 -0 0 -0 -0 0 -0 -1.2775 11.62 -4.3719 -0 0 -0 -0 0 -0 -56.757 -41.003 -61.643 125.39 -35.19 75.96 -0 0 -0 -0 0 -0 1.9275 -11.697 4.7566 50.524 -39.925 -56.586 -0 0 -0 -0 0 -0 -0 0 -0 -0 0 -0 -0 0 -0 -0 0 -0 -0 0 -0 -0 0 -0 -0 0 -0 -0 0 -0 -0 0 -0 -0 0 -0 -0 0 -0 -0 0 -0 -0 0 -0 
0 95.5 0 -0 0 -0 -0 0 -0 -0 0 -0 -0.51129 11.565 -6.7075 -0 0 -0 -0 0 -0 -57.384 -38.714 -66.867 126.08 -36.801 76.192 -0 0 -0 -0 0 -0 1.6271 -11.645 6.9833 48.89 -41.007 -61.529 -0 0 -0 -0 0 -0 -0 0 -0 -0 0 -0 -0 0 -0 -0 0 -0 -0 0 -0 -0 0 -0 -0 0 -0 -0 0 -0 -0 0 -0 -0 0 -0 -0 0 -0 -0 0 -0 -0 0 -0 
0 95.5 0 -0 0 -0 -0 0 -0 -0 0 -0 0.15043 11.489 -8.8803 -0 0 -0 -0 0 -0 -57.799 -36.585 -71.303 126.53 -38.94 76.271 -0 0 -0 -0 0 -0 1.3986 -11.603 9.0667 47.25 -41.905 -66.358 -0 0 -0 -0 0 -0 -0 0 -0 -0 0 -0 -0 0 -0 -0 0 -0 -0 0 -0 -0 0 -0 -0 0 -0 -0 0 -0 -0 0 -0 -0 0 -0 -0 0 -0 -0 0 -0 -0 0 -0 
0 95.5 0 -0 0 -0 -0 0 -0 -0 0 -0 0.64874 11.451 -10.846 -0 0 -0 -0 0 -0 -58.009 -34.664 -74.734 126.71 -41.539 75.938 -0 0 -0 -0 0 -0 1.2974 -11.603 10.974 45.511 -42.709 -70.932 -0 0 -0 -0 0 -0 -0 0 -0 -0 0 -0 -0 0 -0 -0 0 -0 -0 0 -0 -0 0 -0 -0 0 -0 -0 0 -0 -0 0 -0 -0 0 -0 -0 0 -0 -0 0 -0 -0 0 -0 
0 95.5 0 -0 0 -0 -0 0 -0 -0 0 -0 0.97708 11.478 -12.579 -0 0 -0 -0 0 -0 -58.208 -32.948 -77.224 126.59 -44.595 74.952 -0 0 -0 -0 0 -0 1.3295 -11.659 12.677 43.567 -43.46 -75.172 -0 0 -0 -0 0 -0 -0 0 -0 -0 0 -0 -0 0 -0 -0 0 -0 -0 0 -0 -0 0 -0 -0 0 -0 -0 0 -0 -0 0 -0 -0 0 -0 -0 0 -0 -0 0 -0 -0 0 -0 
0 95.5 0 -0 0 -0 -0 0 -0 -0 0 -0 1.1505 11.572 -14.052 -0 0 -0 -0 0 -0 -58.519 -31.369 -79.024 126.18 -48.027 73.328 -0 0 -0 -0 0 -0 1.4785 -11.76 14.147 41.354 -44.132 -79 -0 0 -0 -0 0 -0 -0 0 -0 -0 0 -0 -0 0 -0 -0 0 -0 -0 0 -0 -0 0 -0 -0 0 -0 -0 0 -0 -0 0 -0 -0 0 -0 -0 0 -0 -0 0 -0 -0 0 -0 
0 95.5 0 -0 0 -0 -0 0 -0 -0 0 -0 1.2108 11.718 -15.278 -0 0 -0 -0 0 -0 -58.917 -29.881 -80.451 125.48 -51.591 71.243 -0 0 -0 -0 0 -0 1.7072 -11.887 15.391 38.925 -44.789 -82.376 -0 0 -0 -0 0 -0 -0 0 -0 -0 0 -0 -0 0 -0 -0 0 -0 -0 0 -0 -0 0 -0 -0 0 -0 -0 0 -0 -0 0 -0 -0 0 -0 -0 0 -0 -0 0 -0 -0 0 -0 
0 95.5 0 -0 0 -0 -0 0 -0 -0 0 -0 1.2201 11.912 -16.281 -0 0 -0 -0 0 -0 -59.385 -28.505 -81.881 124.3 -55.008 68.728 -0 0 -0 -0 0 -0 1.9628 -12.045 16.419 36.381 -45.592 -85.503 -0 0 -0 -0 0 -0 -0 0 -0 -0 0 -0 -0 0 -0 -0 0 -0 -0 0 -0 -0 0 -0 -0 0 -0 -0 0 -0 -0 0 -0 -0 0 -0 -0 0 -0 -0 0 -0 -0 0 -0 
0 95.5 0 -0 0 -0 -0 0 -0 -0 0 -0 1.2223 12.127 -17.076 -0 0 -0 -0 0 -0 -59.938 -27.264 -83.55 122.5 -58.14 65.735 -0 0 -0 -0 0 -0 2.1978 -12.22 17.24 33.767 -46.588 -88.704 -0 0 -0 -0 0 -0 -0 0 -0 -0 0 -0 -0 0 -0 -0 0 -0 -0 0 -0 -0 0 -0 -0 0 -0 -0 0 -0 -0 0 -0 -0 0 -0 -0 0 -0 -0 0 -0 -0 0 -0 
0 95.5 0 -0 0 -0 -0 0 -0 -0 0 -0 1.2272 12.326 -17.689 -0 0 -0 -0 0 -0 -60.536 -26.206 -85.513 120.21 -60.963 62.348 -0 0 -0 -0 0 -0 2.3915 -12.381 17.874 31.059 -47.727 -92.171 -0 0 -0 -0 0 -0 -0 0 -0 -0 0 -0 -0 0 -0 -0 0 -0 -0 0 -0 -0 0 -0 -0 0 -0 -0 0 -0 -0 0 -0 -0 0 -0 -0 0 -0 -0 0 -0 -0 0 -0 
0 95.5 0 -0 0 -0 -0 0 -0 -0 0 -0 1.2184 12.497 -18.13 -0 0 -0 -0 0 -0 -61.089 -25.413 -87.677 117.69 -63.518 58.798 -0 0 -0 -0 0 -0 2.5527 -12.518 18.334 28.169 -48.936 -95.863 -0 0 -0 -0 0 -0 -0 0 -0 -0 0 -0 -0 0 -0 -0 0 -0 -0 0 -0 -0 0 -0 -0 0 -0 -0 0 -0 -0 0 -0 -0 0 -0 -0 0 -0 -0 0 -0 -0 0 -0 
0 95.5 0 -0 0 -0 -0 0 -0 -0 0 -0 1.1752 12.646 -18.404 -0 0 -0 -0 0 -0 -61.532 -24.994 -89.873 115.21 -65.875 55.349 -0 0 -0 -0 0 -0 2.7004 -12.632 18.63 25.008 -50.104 -99.51 -0 0 -0 -0 0 -0 -0 0 -0 -0 0 -0 -0 0 -0 -0 0 -0 -0 0 -0 -0 0 -0 -0 0 -0 -0 0 -0 -0 0 -0 -0 0 -0 -0 0 -0 -0 0 -0 -0 0 -0 
